<svg width="16" height="16" viewBox="0 0 16 16" fill="none" xmlns="http://www.w3.org/2000/svg">
<path d="M4.66667 7H6V8.33333H4.66667V7ZM14 3.66667V13C14 13.7333 13.4 14.3333 12.6667 14.3333H3.33333C2.97971 14.3333 2.64057 14.1929 2.39052 13.9428C2.14048 13.6928 2 13.3536 2 13L2.00667 3.66667C2.00667 2.93333 2.59333 2.33333 3.33333 2.33333H4V1H5.33333V2.33333H10.6667V1H12V2.33333H12.6667C13.4 2.33333 14 2.93333 14 3.66667ZM3.33333 5H12.6667V3.66667H3.33333V5ZM12.6667 13V6.33333H3.33333V13H12.6667ZM10 8.33333H11.3333V7H10V8.33333ZM7.33333 8.33333H8.66667V7H7.33333V8.33333Z" fill="#7F977B"/>
</svg>
