<svg width="31" height="30" viewBox="0 0 31 30" fill="none" xmlns="http://www.w3.org/2000/svg">
<path fill-rule="evenodd" clip-rule="evenodd" d="M8.34755 14.2C8.34755 11.1072 10.8548 8.60003 13.9475 8.60003C17.0403 8.60003 19.5475 11.1072 19.5475 14.2C19.5475 17.2928 17.0403 19.8 13.9475 19.8C10.8548 19.8 8.34755 17.2928 8.34755 14.2ZM13.9475 7.00003C9.9711 7.00003 6.74756 10.2236 6.74756 14.2C6.74756 18.1764 9.9711 21.4 13.9475 21.4C16.2094 21.4 18.2276 20.357 19.5476 18.7258C19.549 18.9286 19.6271 19.1309 19.7818 19.2857L23.2618 22.7657C23.5742 23.0781 24.0808 23.0781 24.3932 22.7657C24.7056 22.4532 24.7056 21.9467 24.3932 21.6343L20.9132 18.1543C20.6897 17.9308 20.3669 17.8672 20.0868 17.9635C20.7596 16.8684 21.1475 15.5795 21.1475 14.2C21.1475 10.2236 17.924 7.00003 13.9475 7.00003Z" fill="white"/>
</svg>
